<svg width="18" height="13" viewBox="0 0 18 13" fill="none" xmlns="http://www.w3.org/2000/svg">
<path fill-rule="evenodd" clip-rule="evenodd" d="M15.6679 0.500008C16.4022 0.701518 16.9805 1.29526 17.1768 2.04927C17.5335 3.41581 17.5335 6.26712 17.5335 6.26712C17.5335 6.26712 17.5335 9.11833 17.1768 10.485C16.9805 11.239 16.4022 11.8327 15.6679 12.0343C14.3371 12.4005 9.00013 12.4005 9.00013 12.4005C9.00013 12.4005 3.66321 12.4005 2.3323 12.0343C1.59795 11.8327 1.01962 11.239 0.823354 10.485C0.466797 9.11833 0.466797 6.26712 0.466797 6.26712C0.466797 6.26712 0.466797 3.41581 0.823354 2.04927C1.01962 1.29526 1.59795 0.701518 2.3323 0.500008C3.66321 0.133789 9.00013 0.133789 9.00013 0.133789C9.00013 0.133789 14.3371 0.133789 15.6679 0.500008ZM7.40015 3.86707V9.2004L11.6668 6.53383L7.40015 3.86707Z" fill="white"/>
</svg>
